# xmcd
#
# Track frame offsets: 
#        150
#        645
#        23911
#        51346
#        67462
#        94091
#        122551
#        130190
#        130955
#        146203
#        161687
#        183374
#        197176
#        212524
#        223280
#        241954
#        298172
#
# Disc length: 4221 seconds
#
# Revision: 1
# Processed by: cddbd v1.5.2PL0 Copyright (c) Steve Scherf et al.
# Submitted via: ExactAudioCopyFreeDBPlugin 1.0
#
DISCID=12107b11
DTITLE=Various Artist - The Fillmore East: The Last 3 Nites
DYEAR=1971
DGENRE=Rock
TTITLE0=Bill Graham Intro
TTITLE1=ALBERT KING Knock On Wood
TTITLE2=ALBERT KING Got To Be Some Changes
TTITLE3=ALBERT KING Nothing But The Blues
TTITLE4=ALBERT KING Crosscut Saw
TTITLE5=ALBERT KING Personal Manager
TTITLE6=ALBERT KING Bye Bye Blues
TTITLE7=Bill Graham Intro
TTITLE8=J. GEILS BAND Sno-Cone
TTITLE9=J. GEILS BAND Wait
TTITLE10=J. GEILS BAND First I Look At The Purse
TTITLE11=J. GEILS BAND Whammer Jammer
TTITLE12=J. GEILS BAND Homework
TTITLE13=J. GEILS BAND Cruisin' For A Love
TTITLE14=J. GEILS BAND Pack Fair And Square
TTITLE15=J. GEILS BAND Serves You Right To Suffer
TTITLE16=J. GEILS BAND Hard Drivin' Man
EXTD=
EXTT0=
EXTT1=
EXTT2=
EXTT3=
EXTT4=
EXTT5=
EXTT6=
EXTT7=
EXTT8=
EXTT9=
EXTT10=
EXTT11=
EXTT12=
EXTT13=
EXTT14=
EXTT15=
EXTT16=
PLAYORDER=
